P3
10 10
255
 0 0 255  0 0 255  0 0 255  0 0 255  0 0 255  0 0 255  0 0 255  0 0 255  0 0 255  0 0 255 
 255 0 0  14 255 0  0 255 173  0 255 250  0 231 255  0 231 255  0 255 250  0 255 173  14 255 0  255 0 0 
 255 0 0  228 255 0  55 255 0  0 255 38  0 255 78  0 255 78  0 255 38  55 255 0  229 255 0  255 0 0 
 255 0 0  255 176 0  203 255 0  121 255 0  83 255 0  83 255 0  121 255 0  203 255 0  255 176 0  255 0 0 
 255 0 0  255 115 0  255 209 0  238 255 0  207 255 0  207 255 0  238 255 0  255 209 0  255 115 0  255 0 0 
 255 0 0  255 77 0  255 142 0  255 187 0  255 210 0  255 210 0  255 187 0  255 141 0  255 76 0  255 0 0 
 255 0 0  255 50 0  255 93 0  255 124 0  255 140 0  255 140 0  255 123 0  255 92 0  255 49 0  255 0 0 
 255 0 0  255 30 0  255 56 0  255 75 0  255 85 0  255 85 0  255 75 0  255 56 0  255 30 0  255 0 0 
 255 0 0  255 14 0  255 26 0  255 35 0  255 40 0  255 40 0  255 35 0  255 26 0  255 14 0  255 0 0 
 255 0 0  255 0 0  255 0 0  255 0 0  255 0 0  255 0 0  255 0 0  255 0 0  255 0 0  255 0 0 
